<?xml version="1.0" standalone="no"?>
<!DOCTYPE svg PUBLIC "-//W3C//DTD SVG 20010904//EN"
 "http://www.w3.org/TR/2001/REC-SVG-20010904/DTD/svg10.dtd">
<svg version="1.0" xmlns="http://www.w3.org/2000/svg"
 width="1563.000000pt" height="1563.000000pt" viewBox="0 0 1563.000000 1563.000000"
 preserveAspectRatio="xMidYMid meet">

<g transform="translate(0.000000,1563.000000) scale(0.100000,-0.100000)"
fill="#000000" stroke="none">
<path d="M4671 12973 c0 -5 127 -228 283 -498 l282 -490 1704 0 1703 0 278
494 c154 271 279 495 279 497 0 2 -1019 4 -2265 4 -1246 0 -2265 -3 -2264 -7z"/>
<path d="M10032 12913 c-267 -459 -1732 -3006 -1732 -3011 0 -10 514 -932 520
-932 4 0 1234 2136 2283 3962 l27 48 -529 0 -530 0 -39 -67z"/>
<path d="M5623 11318 c2 -7 511 -893 1129 -1968 619 -1075 1129 -1963 1135
-1973 8 -15 54 59 268 430 142 246 258 453 258 458 0 6 -390 697 -868 1538
l-867 1527 -530 0 c-420 0 -529 -3 -525 -12z"/>
<path d="M9472 5178 c4 -966 4 -974 26 -1051 70 -250 257 -438 504 -507 60
-17 103 -20 249 -20 l176 0 357 615 356 614 0 661 0 660 -150 0 -150 0 0 -620
0 -619 -296 -511 -296 -510 -42 0 c-61 0 -163 27 -218 57 -65 35 -143 120
-176 190 l-27 58 -3 978 -2 977 -156 0 -155 0 3 -972z"/>
<path d="M12495 6135 c-148 -33 -252 -90 -361 -199 -89 -90 -142 -174 -183
-294 l-26 -77 0 -675 c0 -523 3 -689 13 -735 20 -90 102 -251 162 -318 93
-104 225 -184 358 -218 63 -16 110 -19 297 -19 244 0 320 12 427 66 184 93
302 227 372 421 l31 88 0 690 0 690 -23 75 c-80 256 -268 435 -526 500 -67 17
-111 20 -280 19 -129 0 -223 -5 -261 -14z m548 -322 c123 -58 213 -174 237
-305 7 -36 10 -275 8 -675 l-3 -618 -25 -58 c-47 -108 -129 -188 -242 -235
-57 -24 -78 -27 -229 -30 -100 -2 -188 1 -220 7 -178 37 -311 174 -339 348 -6
32 -10 318 -10 636 0 654 1 670 70 776 55 85 154 155 255 182 17 4 120 7 230
6 l200 -2 68 -32z"/>
<path d="M2729 6065 c-255 -62 -451 -269 -505 -535 -43 -212 31 -446 190 -606
110 -110 260 -182 414 -198 l62 -7 0 144 0 144 -51 6 c-123 15 -246 106 -302
225 -30 62 -32 75 -32 172 0 99 2 109 32 166 42 81 113 150 193 188 l65 31
228 3 227 3 0 140 0 139 -232 -1 c-159 0 -251 -5 -289 -14z"/>
<path d="M7110 4865 l0 -1215 140 0 140 0 0 1076 0 1075 358 -3 357 -3 65 -31
c84 -40 155 -111 194 -194 28 -59 31 -74 31 -165 0 -93 -2 -105 -33 -167 -41
-83 -107 -149 -191 -191 -65 -32 -66 -32 -244 -35 l-178 -4 3 -141 3 -142 180
-5 c173 -5 182 -6 238 -33 78 -39 153 -115 191 -196 l31 -66 3 -387 3 -388
144 0 145 0 0 358 c-1 378 -7 452 -50 564 -29 77 -106 193 -163 246 -26 23
-47 43 -47 45 0 1 28 32 63 68 76 80 129 169 164 274 23 69 26 97 26 200 0
102 -4 132 -26 200 -37 112 -90 198 -172 280 -81 80 -151 125 -257 163 l-73
27 -522 3 -523 3 0 -1216z"/>
<path d="M5175 6001 c-125 -30 -219 -85 -316 -181 -73 -73 -93 -100 -132 -180
-25 -52 -50 -116 -56 -142 -17 -70 -14 -259 5 -332 31 -119 105 -241 199 -328
l40 -38 -61 -62 c-95 -98 -148 -189 -178 -305 -21 -79 -21 -259 -1 -338 57
-226 232 -409 465 -487 62 -21 85 -22 468 -26 l402 -3 0 140 0 141 -332 0
c-183 0 -362 5 -398 10 -136 22 -237 96 -297 218 -36 73 -38 80 -38 176 0 89
3 108 27 158 31 67 103 147 163 183 76 44 143 55 337 55 l178 0 0 140 0 140
-152 0 c-84 0 -184 5 -222 10 -130 19 -242 103 -303 228 -25 51 -27 68 -28
162 0 95 3 110 28 162 62 126 174 209 308 228 35 5 214 10 397 10 l332 0 0
140 0 140 -382 -1 c-327 0 -393 -3 -453 -18z"/>
<path d="M3257 5003 c-4 -3 -7 -69 -7 -145 l0 -138 28 0 c81 0 202 -59 266
-130 165 -182 126 -466 -81 -598 -85 -54 -134 -62 -365 -62 l-208 0 0 -140 0
-140 236 0 c268 0 309 7 433 70 436 222 502 815 125 1130 -62 52 -212 125
-284 138 -94 18 -137 22 -143 15z"/>
<path d="M10463 3210 c-33 -30 -42 -50 -22 -50 16 0 79 54 79 68 0 20 -23 13
-57 -18z"/>
<path d="M3497 3114 c-4 -4 -7 -25 -7 -46 0 -31 3 -38 20 -38 15 0 20 7 20 25
0 23 4 25 45 25 l45 0 0 -135 c0 -128 -1 -135 -20 -135 -11 0 -20 -7 -20 -15
0 -12 13 -15 60 -15 47 0 60 3 60 15 0 8 -9 15 -20 15 -19 0 -20 7 -20 135 l0
135 45 0 c41 0 45 -2 45 -25 0 -19 5 -25 21 -25 18 0 20 5 17 43 l-3 42 -141
3 c-77 1 -143 -1 -147 -4z"/>
<path d="M3890 3100 c0 -13 7 -20 20 -20 19 0 20 -7 20 -135 0 -128 -1 -135
-20 -135 -11 0 -20 -7 -20 -15 0 -13 21 -15 131 -15 l130 0 -3 43 c-4 49 -31
60 -36 15 -3 -28 -4 -28 -73 -28 l-69 0 0 60 0 60 60 0 c47 0 60 3 60 15 0 12
-13 15 -60 15 l-60 0 0 60 0 60 70 0 c68 0 70 -1 70 -25 0 -19 5 -25 21 -25
18 0 20 5 17 43 l-3 42 -127 3 c-123 2 -128 2 -128 -18z"/>
<path d="M4331 3098 c-62 -33 -83 -76 -79 -158 4 -77 31 -124 84 -146 70 -29
168 -8 201 43 14 21 14 26 2 34 -9 6 -19 3 -29 -10 -8 -10 -25 -24 -37 -30
-31 -16 -105 -14 -131 5 -70 49 -69 181 2 228 53 34 144 10 161 -44 4 -11 13
-20 21 -20 11 0 14 15 14 60 0 47 -3 60 -15 60 -10 0 -15 -10 -15 -27 l0 -26
-24 22 c-37 35 -100 38 -155 9z"/>
<path d="M4650 3100 c0 -13 7 -20 20 -20 19 0 20 -7 20 -135 0 -128 -1 -135
-20 -135 -11 0 -20 -7 -20 -15 0 -12 13 -15 60 -15 44 0 60 4 60 14 0 7 -9 16
-20 19 -17 4 -20 14 -20 61 l0 56 90 0 90 0 0 -56 c0 -47 -3 -57 -20 -61 -11
-3 -20 -12 -20 -19 0 -10 16 -14 60 -14 47 0 60 3 60 15 0 8 -9 15 -20 15 -19
0 -20 7 -20 135 0 128 1 135 20 135 13 0 20 7 20 20 0 18 -7 20 -60 20 -53 0
-60 -2 -60 -20 0 -13 7 -20 20 -20 18 0 20 -7 20 -60 l0 -60 -90 0 -90 0 0 60
c0 53 2 60 20 60 13 0 20 7 20 20 0 18 -7 20 -60 20 -53 0 -60 -2 -60 -20z"/>
<path d="M5830 3100 c0 -11 7 -20 15 -20 15 0 12 -10 -65 -212 -16 -43 -26
-58 -41 -58 -10 0 -19 -7 -19 -15 0 -12 13 -15 60 -15 47 0 60 3 60 15 0 8 -9
15 -20 15 -24 0 -24 -1 -4 50 l16 40 64 0 64 0 15 -36 c20 -48 19 -54 -6 -54
-12 0 -19 -5 -17 -12 6 -18 118 -24 118 -6 0 7 -10 18 -21 23 -15 7 -36 48
-73 145 -28 74 -55 141 -59 148 -5 6 -26 12 -48 12 -32 0 -39 -3 -39 -20z m99
-112 l21 -58 -54 0 -55 0 25 62 c13 34 24 64 24 67 0 16 20 -22 39 -71z"/>
<path d="M6250 3113 c-63 -23 -82 -104 -33 -142 14 -12 51 -29 82 -38 75 -21
91 -33 91 -64 0 -35 -24 -54 -70 -54 -44 0 -87 27 -100 61 -5 13 -16 24 -25
24 -12 0 -15 -13 -15 -60 0 -47 3 -60 15 -60 10 0 15 10 15 27 l0 26 25 -23
c19 -18 40 -25 85 -28 55 -4 61 -2 90 26 63 63 30 125 -82 156 -68 19 -98 39
-98 66 0 51 93 68 135 25 14 -13 25 -31 25 -40 0 -9 6 -15 13 -13 7 3 13 27
15 61 2 46 0 57 -13 57 -8 0 -15 -7 -15 -15 0 -18 -1 -18 -36 0 -29 15 -75 18
-104 8z"/>
<path d="M6598 3104 c-53 -28 -64 -89 -24 -129 13 -13 55 -33 95 -45 82 -24
102 -47 77 -85 -34 -51 -136 -35 -159 25 -7 18 -19 30 -29 30 -15 0 -18 -9
-18 -60 0 -47 3 -60 15 -60 8 0 15 9 15 20 0 25 2 25 42 0 55 -34 142 -24 175
19 19 25 16 85 -6 105 -11 10 -48 26 -83 37 -105 33 -132 64 -90 102 40 36
123 13 143 -40 16 -42 34 -22 34 38 0 43 -3 54 -17 57 -11 2 -18 -3 -18 -12 0
-13 -4 -13 -35 0 -43 18 -82 17 -117 -2z"/>
<path d="M6905 3110 c-9 -15 3 -30 26 -30 19 0 19 -6 17 -132 -3 -129 -4 -133
-25 -136 -13 -2 -23 -10 -23 -18 0 -11 15 -14 65 -14 50 0 65 3 65 14 0 8 -10
16 -22 18 -22 3 -23 7 -26 135 -3 130 -2 132 20 135 13 2 23 10 23 18 0 11
-14 16 -57 18 -32 2 -59 -2 -63 -8z"/>
<path d="M7200 3113 c-63 -23 -82 -104 -33 -142 14 -12 51 -29 82 -38 75 -21
91 -33 91 -64 0 -35 -24 -54 -70 -54 -44 0 -87 27 -100 61 -5 13 -16 24 -25
24 -12 0 -15 -13 -15 -60 0 -47 3 -60 15 -60 10 0 15 10 15 27 l0 26 25 -23
c19 -18 40 -25 85 -28 55 -4 61 -2 90 26 63 63 30 125 -82 156 -68 19 -98 39
-98 66 0 51 93 68 135 25 14 -13 25 -31 25 -40 0 -9 6 -15 13 -13 7 3 13 27
15 61 2 46 0 57 -13 57 -8 0 -15 -7 -15 -15 0 -18 -1 -18 -36 0 -29 15 -75 18
-104 8z"/>
<path d="M7490 3075 c0 -38 3 -45 20 -45 15 0 20 7 20 25 0 23 4 25 45 25 l45
0 0 -130 0 -130 -26 -10 c-39 -15 -19 -30 42 -30 41 0 54 4 54 15 0 8 -7 15
-15 15 -13 0 -15 22 -15 135 l0 135 45 0 c41 0 45 -2 45 -25 0 -16 6 -25 15
-25 11 0 15 12 15 45 l0 45 -145 0 -145 0 0 -45z"/>
<path d="M7880 3100 c0 -13 7 -20 20 -20 19 0 20 -7 20 -135 0 -128 -1 -135
-20 -135 -11 0 -20 -7 -20 -15 0 -13 21 -15 130 -15 l130 0 0 46 c0 38 -3 45
-17 42 -11 -2 -19 -14 -21 -31 -3 -28 -4 -28 -70 -25 l-67 3 -3 58 -3 57 66 0
c50 0 65 3 65 15 0 10 -16 15 -62 17 l-63 3 -3 58 -3 57 76 0 c73 0 75 -1 75
-25 0 -16 6 -25 15 -25 11 0 15 12 15 45 l0 45 -130 0 c-123 0 -130 -1 -130
-20z"/>
<path d="M8240 3100 c0 -13 7 -20 20 -20 19 0 20 -7 20 -135 0 -128 -1 -135
-20 -135 -11 0 -20 -7 -20 -15 0 -12 13 -15 60 -15 44 0 60 4 60 14 0 7 -9 16
-20 19 -18 5 -20 14 -20 116 0 61 2 111 4 111 2 0 41 -58 86 -130 68 -107 87
-130 106 -130 l24 0 0 150 c0 143 1 150 20 150 13 0 20 7 20 20 0 18 -7 20
-60 20 -53 0 -60 -2 -60 -20 0 -13 7 -20 20 -20 19 0 20 -6 19 -117 0 -95 -2
-114 -12 -100 -7 10 -47 72 -89 138 l-77 119 -41 0 c-33 0 -40 -3 -40 -20z"/>
<path d="M8761 3098 c-62 -33 -83 -76 -79 -158 4 -77 31 -124 84 -146 70 -29
168 -8 201 43 14 21 14 26 2 34 -9 6 -19 3 -29 -10 -8 -10 -25 -24 -37 -30
-31 -16 -105 -14 -131 5 -70 49 -69 181 2 228 53 34 144 10 161 -44 4 -11 13
-20 21 -20 11 0 14 15 14 60 0 47 -3 60 -15 60 -10 0 -15 -10 -15 -27 l0 -26
-24 22 c-37 35 -100 38 -155 9z"/>
<path d="M9080 3100 c0 -13 7 -20 20 -20 19 0 20 -7 20 -135 0 -128 -1 -135
-20 -135 -11 0 -20 -7 -20 -15 0 -12 13 -15 60 -15 44 0 60 4 60 14 0 7 -9 16
-20 19 -19 5 -20 14 -20 136 0 124 1 131 20 131 13 0 20 7 20 20 0 18 -7 20
-60 20 -53 0 -60 -2 -60 -20z"/>
<path d="M9404 3108 c-4 -6 1 -17 10 -24 17 -12 15 -21 -30 -140 -33 -89 -53
-128 -66 -132 -10 -2 -18 -11 -18 -18 0 -10 15 -14 55 -14 42 0 55 3 55 15 0
8 -7 15 -15 15 -19 0 -19 11 -1 55 15 35 15 35 80 35 63 0 64 -1 75 -31 15
-43 14 -59 -4 -59 -8 0 -15 -7 -15 -15 0 -11 13 -15 54 -15 59 0 81 15 44 29
-18 7 -34 39 -77 152 -30 79 -59 147 -65 151 -17 12 -74 9 -82 -4z m95 -107
c11 -32 21 -61 21 -65 0 -3 -23 -6 -51 -6 -37 0 -50 4 -46 13 2 6 13 36 23 65
10 28 22 52 25 52 3 0 16 -26 28 -59z"/>
<path d="M9950 3075 c0 -38 3 -45 20 -45 15 0 20 7 20 25 0 23 4 25 45 25 l45
0 0 -130 0 -130 -26 -10 c-39 -15 -19 -30 42 -30 41 0 54 4 54 15 0 8 -7 15
-15 15 -13 0 -15 22 -15 135 l0 135 45 0 c41 0 45 -2 45 -25 0 -16 6 -25 15
-25 11 0 15 12 15 45 l0 45 -145 0 -145 0 0 -45z"/>
<path d="M10340 3100 c0 -13 7 -20 20 -20 19 0 20 -7 20 -135 0 -128 -1 -135
-20 -135 -11 0 -20 -7 -20 -15 0 -13 21 -15 130 -15 l130 0 0 46 c0 38 -3 45
-17 42 -11 -2 -19 -14 -21 -31 -3 -28 -4 -28 -70 -25 l-67 3 -3 58 -3 57 66 0
c50 0 65 3 65 15 0 10 -16 15 -62 17 l-63 3 -3 58 -3 57 76 0 c73 0 75 -1 75
-25 0 -16 6 -25 15 -25 11 0 15 12 15 45 l0 45 -130 0 c-123 0 -130 -1 -130
-20z"/>
<path d="M10795 3106 c-88 -39 -122 -153 -72 -246 31 -59 76 -82 150 -77 37 2
67 10 84 23 37 28 50 51 37 64 -8 8 -20 2 -44 -20 -27 -25 -40 -30 -84 -30
-61 0 -92 18 -112 66 -41 97 14 194 110 194 37 0 96 -40 96 -67 0 -8 7 -13 18
-11 14 3 17 14 17 58 0 44 -3 55 -17 58 -12 2 -18 -3 -18 -16 0 -20 0 -20 -37
-1 -43 22 -86 24 -128 5z"/>
<path d="M11105 3111 c-9 -16 3 -31 26 -31 19 0 19 -6 17 -132 -3 -129 -4
-133 -25 -136 -13 -2 -23 -10 -23 -18 0 -11 15 -14 65 -14 50 0 65 3 65 14 0
8 -10 16 -22 18 -22 3 -23 7 -25 118 -3 134 -11 137 100 -35 52 -79 78 -111
95 -113 22 -3 22 -3 22 147 0 144 1 151 20 151 13 0 20 7 20 20 0 18 -7 20
-60 20 -53 0 -60 -2 -60 -20 0 -13 7 -20 20 -20 19 0 20 -7 20 -117 l0 -118
-51 80 c-115 182 -121 190 -161 193 -20 2 -39 -2 -43 -7z"/>
<path d="M11540 3100 c0 -13 7 -20 20 -20 19 0 20 -7 20 -135 0 -128 -1 -135
-20 -135 -11 0 -20 -7 -20 -15 0 -12 13 -15 60 -15 47 0 60 3 60 15 0 8 -9 15
-20 15 -19 0 -20 7 -20 135 0 128 1 135 20 135 13 0 20 7 20 20 0 18 -7 20
-60 20 -53 0 -60 -2 -60 -20z"/>
<path d="M11855 3106 c-122 -53 -125 -249 -4 -311 35 -19 100 -19 142 -1 42
17 71 51 63 72 -5 13 -11 11 -41 -15 -29 -25 -45 -31 -81 -31 -65 0 -99 21
-119 74 -23 60 -13 110 30 153 25 25 41 33 70 33 46 0 94 -27 101 -57 4 -14
14 -23 25 -23 17 0 19 8 19 60 0 48 -3 60 -16 60 -9 0 -18 -8 -21 -19 -4 -18
-6 -18 -41 0 -42 22 -85 24 -127 5z"/>
<path d="M12270 3100 c0 -11 6 -20 14 -20 10 0 2 -30 -30 -115 -52 -139 -61
-155 -79 -155 -8 0 -15 -7 -15 -15 0 -13 11 -15 57 -13 34 2 58 8 61 16 2 7
-5 12 -17 12 -25 0 -26 6 -6 54 l15 36 64 0 64 0 16 -40 c20 -51 20 -50 -4
-50 -11 0 -20 -7 -20 -15 0 -12 13 -15 60 -15 47 0 60 3 60 15 0 8 -9 15 -19
15 -14 0 -25 14 -39 53 -73 191 -94 242 -105 249 -7 4 -27 8 -44 8 -26 0 -33
-4 -33 -20z m94 -108 l25 -62 -54 0 -54 0 13 38 c28 75 37 95 41 90 3 -3 16
-33 29 -66z"/>
<path d="M5280 2905 c0 -12 16 -15 80 -15 64 0 80 3 80 15 0 12 -16 15 -80 15
-64 0 -80 -3 -80 -15z"/>
</g>
</svg>
