<svg xmlns="http://www.w3.org/2000/svg" xmlns:xlink="http://www.w3.org/1999/xlink" width="50" zoomAndPan="magnify" viewBox="0 0 37.5 37.499999" height="50" preserveAspectRatio="xMidYMid meet" version="1.0"><defs><clipPath id="70a03080ea"><path d="M 0 0 L 37.007812 0 L 37.007812 37.007812 L 0 37.007812 Z M 0 0 " clip-rule="nonzero"/></clipPath></defs><g clip-path="url(#70a03080ea)"><path fill="#ffffff" d="M 18.742188 3.382812 C 23.746094 3.382812 24.335938 3.398438 26.316406 3.488281 C 28.140625 3.570312 29.136719 3.875 29.800781 4.136719 C 30.671875 4.472656 31.296875 4.882812 31.953125 5.542969 C 32.609375 6.199219 33.015625 6.824219 33.359375 7.695312 C 33.613281 8.351562 33.917969 9.347656 34.007812 11.179688 C 34.097656 13.160156 34.113281 13.75 34.113281 18.753906 C 34.113281 23.757812 34.097656 24.347656 34.007812 26.328125 C 33.925781 28.152344 33.621094 29.148438 33.359375 29.8125 C 33.023438 30.683594 32.609375 31.308594 31.953125 31.964844 C 31.296875 32.625 30.671875 33.027344 29.800781 33.371094 C 29.144531 33.625 28.148438 33.929688 26.316406 34.019531 C 24.335938 34.109375 23.746094 34.128906 18.742188 34.128906 C 13.738281 34.128906 13.144531 34.109375 11.167969 34.019531 C 9.34375 33.9375 8.347656 33.632812 7.683594 33.371094 C 6.8125 33.035156 6.1875 32.625 5.53125 31.964844 C 4.871094 31.308594 4.46875 30.683594 4.125 29.8125 C 3.871094 29.15625 3.566406 28.160156 3.476562 26.328125 C 3.386719 24.347656 3.367188 23.757812 3.367188 18.753906 C 3.367188 13.75 3.386719 13.160156 3.476562 11.179688 C 3.558594 9.355469 3.863281 8.359375 4.125 7.695312 C 4.460938 6.824219 4.871094 6.199219 5.53125 5.542969 C 6.1875 4.882812 6.8125 4.480469 7.683594 4.136719 C 8.339844 3.882812 9.332031 3.578125 11.167969 3.488281 C 13.144531 3.398438 13.738281 3.382812 18.742188 3.382812 M 18.742188 0.00390625 C 13.648438 0.00390625 13.015625 0.0273438 11.011719 0.117188 C 9.011719 0.210938 7.648438 0.53125 6.457031 0.988281 C 5.226562 1.464844 4.183594 2.109375 3.140625 3.152344 C 2.101562 4.195312 1.460938 5.238281 0.984375 6.46875 C 0.527344 7.660156 0.207031 9.027344 0.113281 11.023438 C 0.0234375 13.019531 0 13.660156 0 18.746094 C 0 23.839844 0.0234375 24.472656 0.113281 26.476562 C 0.207031 28.472656 0.527344 29.839844 0.984375 31.03125 C 1.460938 32.261719 2.101562 33.304688 3.148438 34.347656 C 4.191406 35.390625 5.234375 36.035156 6.464844 36.511719 C 7.65625 36.96875 9.023438 37.289062 11.019531 37.378906 C 13.015625 37.472656 13.65625 37.496094 18.75 37.496094 C 23.84375 37.496094 24.476562 37.472656 26.480469 37.378906 C 28.476562 37.289062 29.84375 36.96875 31.035156 36.511719 C 32.265625 36.035156 33.308594 35.390625 34.351562 34.347656 C 35.398438 33.304688 36.039062 32.261719 36.515625 31.03125 C 36.972656 29.839844 37.292969 28.472656 37.386719 26.476562 C 37.476562 24.480469 37.5 23.839844 37.5 18.746094 C 37.5 13.652344 37.476562 13.019531 37.386719 11.015625 C 37.292969 9.019531 36.972656 7.652344 36.515625 6.460938 C 36.039062 5.230469 35.398438 4.1875 34.351562 3.144531 C 33.308594 2.097656 32.265625 1.457031 31.035156 0.980469 C 29.84375 0.523438 28.476562 0.203125 26.480469 0.109375 C 24.476562 0.0273438 23.835938 0.00390625 18.742188 0.00390625 " fill-opacity="1" fill-rule="nonzero"/></g><path fill="#ffffff" d="M 18.742188 9.125 C 13.425781 9.125 9.121094 13.429688 9.121094 18.746094 C 9.121094 24.0625 13.433594 28.375 18.75 28.375 C 24.066406 28.375 28.378906 24.070312 28.378906 18.746094 C 28.371094 13.429688 24.058594 9.125 18.742188 9.125 M 18.742188 25 C 15.289062 25 12.496094 22.203125 12.496094 18.753906 C 12.496094 15.304688 15.289062 12.507812 18.742188 12.507812 C 22.191406 12.507812 24.984375 15.304688 24.984375 18.753906 C 24.996094 22.195312 22.191406 25 18.742188 25 " fill-opacity="1" fill-rule="nonzero"/><path fill="#ffffff" d="M 31 8.746094 C 31 9.988281 29.988281 10.996094 28.75 10.996094 C 27.507812 10.996094 26.5 9.988281 26.5 8.746094 C 26.5 7.503906 27.507812 6.496094 28.75 6.496094 C 29.988281 6.496094 31 7.496094 31 8.746094 " fill-opacity="1" fill-rule="nonzero"/></svg>