<?xml version="1.0" standalone="no"?>
<!DOCTYPE svg PUBLIC "-//W3C//DTD SVG 20010904//EN"
 "http://www.w3.org/TR/2001/REC-SVG-20010904/DTD/svg10.dtd">
<svg version="1.0" xmlns="http://www.w3.org/2000/svg"
 width="1563.000000pt" height="1563.000000pt" viewBox="0 0 1563.000000 1563.000000"
 preserveAspectRatio="xMidYMid meet">

<g transform="translate(0.000000,1563.000000) scale(0.100000,-0.100000)"
fill="#000000" stroke="none">
<path d="M0 7815 l0 -7815 7815 0 7815 0 0 7815 0 7815 -7815 0 -7815 0 0
-7815z m8877 4758 c-2 -5 -120 -214 -262 -466 l-258 -457 -1571 2 -1571 3
-262 455 c-144 250 -263 458 -263 463 0 4 943 7 2096 7 1152 0 2093 -3 2091
-7z m1771 -6 c-7 -31 -2124 -3695 -2130 -3689 -7 7 -467 829 -475 849 -4 9
1598 2801 1629 2841 15 18 981 18 976 -1z m-3297 -2927 c440 -773 798 -1411
797 -1417 -2 -7 -109 -197 -238 -422 -177 -308 -238 -407 -246 -398 -13 14
-2094 3632 -2094 3641 0 3 221 5 491 4 l491 -3 799 -1405z m2061 -4272 l3
-903 30 -58 c61 -122 184 -202 326 -214 l65 -6 272 470 272 469 0 572 0 572
145 0 145 0 0 -603 0 -603 -332 -573 -333 -573 -185 4 c-169 4 -191 6 -252 30
-161 61 -293 174 -365 313 -81 157 -76 89 -80 1103 l-4 902 145 0 146 0 2
-902z m3083 864 c247 -99 397 -297 425 -562 13 -115 12 -1053 0 -1162 -30
-261 -199 -471 -450 -560 -59 -21 -85 -23 -299 -26 -227 -3 -237 -3 -315 22
-188 58 -329 183 -411 361 -61 131 -60 123 -60 795 0 566 1 620 18 680 32 111
94 217 172 295 83 82 159 130 270 168 l80 27 245 -3 245 -2 80 -33z m-9115
-147 l0 -135 -188 0 c-256 0 -315 -18 -415 -130 -113 -126 -114 -336 -1 -469
15 -19 52 -49 80 -67 46 -30 72 -39 167 -59 l27 -5 0 -133 0 -133 -67 8 c-308
36 -536 278 -559 592 -8 107 13 206 67 316 75 151 228 279 389 324 78 22 94
23 308 25 l192 1 0 -135z m4560 111 c208 -68 371 -225 431 -416 41 -129 36
-306 -14 -425 -30 -73 -100 -176 -152 -224 l-45 -41 45 -41 c86 -79 163 -220
185 -338 5 -29 10 -211 10 -402 l0 -349 -130 0 -130 0 0 303 c0 416 -11 476
-104 575 -86 92 -180 122 -383 122 l-113 0 0 130 0 130 113 0 c201 0 298 31
383 122 71 76 89 124 89 243 0 88 -3 107 -27 157 -34 73 -103 142 -176 176
l-57 27 -327 3 -328 3 0 -995 0 -996 -135 0 -135 0 0 1131 0 1130 473 -3 c421
-4 478 -6 527 -22z m-2010 -171 l0 -134 -357 -3 -358 -3 -57 -27 c-79 -37
-142 -98 -180 -176 -29 -58 -33 -76 -33 -147 0 -137 59 -249 165 -313 82 -49
109 -54 308 -59 l182 -5 0 -129 0 -129 -148 0 c-82 0 -175 -5 -207 -11 -149
-27 -254 -125 -291 -269 -42 -165 38 -336 194 -412 l67 -33 357 -3 358 -3 0
-134 0 -135 -332 0 c-184 0 -362 5 -397 11 -240 38 -443 227 -505 466 -20 77
-21 240 -1 313 25 95 82 197 152 271 l65 69 -65 69 c-112 120 -167 260 -167
431 0 153 42 274 136 392 88 111 251 208 382 227 31 5 209 9 395 10 l337 1 0
-135z m-2395 -820 c220 -56 403 -239 460 -460 20 -77 20 -233 0 -310 -47 -185
-189 -350 -365 -425 -96 -40 -162 -49 -378 -50 l-203 0 3 133 3 132 215 5
c203 5 218 6 265 30 104 51 178 143 205 258 45 190 -103 401 -300 429 l-55 8
-3 133 -3 132 49 0 c26 0 75 -7 107 -15z m4140 -1640 c34 -29 37 -35 22 -41
-12 -4 -26 1 -41 15 l-23 22 -31 -26 c-44 -37 -53 -12 -11 31 18 19 35 34 38
34 4 -1 24 -16 46 -35z m2281 24 c10 -18 -68 -80 -84 -67 -9 8 -4 18 25 44 42
37 49 39 59 23z m-5568 -127 c20 -13 22 -13 22 3 0 10 6 15 18 13 25 -5 25
-101 0 -106 -12 -2 -21 6 -28 23 -14 37 -71 59 -115 45 -47 -15 -67 -43 -73
-98 -5 -54 15 -104 47 -122 38 -20 107 -12 141 16 24 20 34 24 43 15 8 -8 4
-19 -20 -43 -27 -27 -41 -32 -91 -36 -94 -7 -143 29 -163 118 -11 50 2 109 34
145 43 50 130 63 185 27z m1741 4 c6 -4 11 -2 11 3 0 6 9 11 21 11 18 0 20 -5
17 -52 -2 -28 -8 -53 -14 -55 -6 -2 -21 12 -32 31 -14 23 -30 36 -51 41 -56
12 -106 -42 -68 -73 7 -6 42 -20 76 -31 34 -11 71 -27 82 -37 28 -25 25 -79
-6 -109 -33 -33 -119 -36 -159 -4 l-26 20 0 -20 c0 -14 -6 -21 -20 -21 -18 0
-20 7 -20 55 0 51 2 55 24 55 17 0 26 -7 30 -26 9 -36 66 -59 111 -44 36 12
50 40 31 63 -6 8 -41 25 -78 37 -105 34 -132 87 -76 147 28 30 105 35 147 9z
m340 0 c6 -4 11 -2 11 3 0 6 9 11 21 11 18 0 20 -5 17 -52 -3 -45 -6 -53 -23
-53 -12 0 -21 8 -23 20 -6 29 -19 42 -49 50 -39 9 -83 -12 -83 -41 0 -29 27
-47 102 -68 87 -25 116 -89 63 -141 -33 -33 -119 -36 -159 -4 l-26 20 0 -20
c0 -14 -6 -21 -20 -21 -18 0 -20 7 -20 55 0 46 3 55 18 55 9 0 24 -13 33 -29
35 -61 140 -61 147 1 3 23 -2 28 -45 43 -95 34 -121 47 -133 70 -24 46 10 104
68 115 27 6 80 -2 101 -14z m540 0 c6 -4 11 -2 11 3 0 6 9 11 21 11 18 0 20
-5 17 -52 -3 -45 -6 -53 -23 -53 -12 0 -21 8 -23 20 -6 29 -19 42 -49 50 -39
9 -83 -12 -83 -41 0 -29 27 -47 102 -68 87 -25 116 -89 63 -141 -33 -33 -119
-36 -159 -4 l-26 20 0 -20 c0 -14 -6 -21 -20 -21 -18 0 -20 7 -20 55 0 46 3
55 18 55 9 0 24 -13 33 -29 35 -61 140 -61 147 1 3 23 -2 28 -45 43 -95 34
-121 47 -133 70 -24 46 10 104 68 115 27 6 80 -2 101 -14z m1459 -2 c19 -13
22 -13 22 1 0 8 9 15 20 15 18 0 20 -7 20 -55 0 -43 -3 -55 -15 -55 -9 0 -20
11 -27 25 -15 32 -67 57 -107 49 -51 -10 -81 -55 -81 -121 0 -47 4 -59 29 -84
25 -24 38 -29 79 -29 39 0 55 5 77 26 33 30 62 26 45 -6 -32 -60 -147 -80
-211 -37 -47 31 -74 99 -65 162 16 105 128 162 214 109z m1877 -4 c12 -10 15
-9 15 4 0 9 8 16 21 16 18 0 20 -5 17 -52 -2 -41 -7 -54 -20 -56 -10 -2 -18 3
-18 11 0 7 -10 23 -22 34 -86 78 -206 -17 -168 -132 25 -76 118 -101 180 -49
22 19 34 24 42 16 32 -32 -43 -82 -124 -82 -47 0 -62 5 -89 27 -126 106 -37
316 119 282 18 -4 39 -13 47 -19z m980 0 c12 -10 15 -9 15 4 0 9 8 16 21 16
18 0 20 -5 17 -52 -2 -41 -7 -54 -20 -56 -10 -2 -18 3 -18 11 0 7 -10 23 -22
34 -86 78 -206 -17 -168 -132 25 -76 118 -101 180 -49 22 19 34 24 42 16 32
-32 -43 -82 -124 -82 -47 0 -62 5 -89 27 -126 106 -37 316 119 282 18 -4 39
-13 47 -19z m-7577 -22 c-4 -50 -31 -61 -36 -15 -3 24 -7 27 -43 27 l-39 0 0
-125 c0 -118 1 -125 20 -125 11 0 20 -7 20 -15 0 -12 -13 -15 -60 -15 -47 0
-60 3 -60 15 0 8 9 15 20 15 19 0 20 7 20 125 l0 125 -39 0 c-36 0 -40 -3 -43
-27 -5 -46 -32 -35 -36 15 l-3 42 141 0 141 0 -3 -42z m332 2 c0 -33 -3 -40
-20 -40 -15 0 -20 7 -20 25 0 24 -2 25 -65 25 l-65 0 0 -55 0 -55 60 0 c47 0
60 -3 60 -15 0 -12 -13 -15 -60 -15 l-60 0 0 -55 0 -55 65 0 c63 0 65 1 65 25
0 18 5 25 20 25 17 0 20 -7 20 -40 l0 -40 -125 0 c-104 0 -125 2 -125 15 0 8
9 15 20 15 19 0 20 7 20 125 0 118 -1 125 -20 125 -11 0 -20 7 -20 15 0 13 21
15 125 15 l125 0 0 -40z m575 29 c4 -6 -2 -13 -14 -16 -18 -5 -21 -13 -21 -59
l0 -54 75 0 75 0 0 55 c0 42 -3 55 -15 55 -8 0 -15 7 -15 15 0 12 13 15 55 15
42 0 55 -3 55 -15 0 -8 -7 -15 -15 -15 -13 0 -15 -21 -15 -125 0 -104 2 -125
15 -125 8 0 15 -7 15 -15 0 -12 -13 -15 -55 -15 -42 0 -55 3 -55 15 0 8 7 15
15 15 12 0 15 13 15 55 l0 55 -75 0 -75 0 0 -55 c0 -49 2 -55 21 -55 12 0 19
-5 17 -12 -7 -19 -118 -23 -118 -5 0 8 9 17 20 20 19 5 20 14 20 122 0 108 -1
117 -20 122 -11 3 -20 12 -20 19 0 17 105 20 115 3z m1110 -129 c35 -92 57
-136 68 -138 9 -2 17 -10 17 -18 0 -10 -14 -14 -55 -14 -42 0 -55 3 -55 15 0
8 7 15 15 15 18 0 18 7 4 49 -11 30 -13 31 -68 31 -52 0 -59 -2 -69 -25 -16
-35 -15 -55 3 -55 8 0 15 -7 15 -15 0 -12 -13 -15 -55 -15 -41 0 -55 4 -55 14
0 8 7 16 16 18 10 2 30 40 54 103 54 145 54 145 36 145 -9 0 -16 7 -16 16 0
12 10 14 47 12 l46 -3 52 -135z m970 129 c4 -6 -2 -13 -14 -16 -20 -5 -21 -12
-21 -129 0 -119 1 -124 21 -124 12 0 19 -5 17 -12 -7 -19 -118 -23 -118 -5 0
8 9 17 20 20 19 5 20 14 20 122 0 108 -1 117 -20 122 -11 3 -20 12 -20 19 0
17 105 20 115 3z m693 -31 c-4 -50 -31 -61 -36 -15 -3 24 -8 27 -38 27 l-34 0
0 -125 c0 -104 2 -125 15 -125 8 0 15 -7 15 -15 0 -12 -13 -15 -55 -15 -42 0
-55 3 -55 15 0 8 7 15 15 15 13 0 15 21 15 125 l0 125 -34 0 c-30 0 -35 -3
-38 -27 -5 -46 -32 -35 -36 15 l-3 42 136 0 136 0 -3 -42z m332 2 c0 -44 -26
-58 -32 -17 -3 20 -9 22 -65 25 l-63 3 0 -56 0 -55 55 0 c42 0 55 -3 55 -15 0
-12 -13 -15 -55 -15 l-55 0 0 -55 0 -56 63 3 c56 3 62 5 65 26 6 40 32 26 32
-18 l0 -40 -120 0 c-100 0 -120 3 -120 15 0 8 9 15 20 15 19 0 20 7 20 125 0
118 -1 125 -20 125 -11 0 -20 7 -20 15 0 13 20 15 120 15 l120 0 0 -40z m250
-82 l80 -123 0 108 c0 100 -1 107 -20 107 -11 0 -20 7 -20 15 0 12 13 15 60
15 47 0 60 -3 60 -15 0 -8 -9 -15 -20 -15 -19 0 -20 -7 -20 -140 l0 -140 -24
0 c-20 0 -38 21 -100 118 l-76 117 0 -102 c0 -96 1 -103 20 -103 11 0 20 -7
20 -15 0 -12 -13 -15 -60 -15 -47 0 -60 3 -60 15 0 8 9 15 20 15 19 0 20 7 20
125 0 118 -1 125 -20 125 -11 0 -20 7 -20 15 0 11 11 15 40 15 l41 0 79 -122z
m735 111 c4 -6 -2 -13 -14 -16 -20 -5 -21 -12 -21 -129 0 -119 1 -124 21 -124
12 0 19 -5 17 -12 -7 -19 -118 -23 -118 -5 0 8 9 17 20 20 19 5 20 14 20 122
0 108 -1 117 -20 122 -11 3 -20 12 -20 19 0 17 105 20 115 3z m300 -86 c59
-156 73 -183 89 -183 9 0 16 -7 16 -15 0 -12 -13 -15 -55 -15 -42 0 -55 3 -55
15 0 8 7 15 15 15 18 0 19 2 1 45 -15 34 -17 35 -70 35 -55 0 -56 -1 -71 -36
-19 -46 -19 -44 6 -44 12 0 19 -5 17 -12 -3 -8 -27 -14 -61 -16 -46 -2 -57 0
-57 13 0 8 8 15 19 15 15 0 27 23 59 108 22 59 43 115 47 125 5 12 2 17 -9 17
-9 0 -16 7 -16 15 0 11 12 15 44 15 l44 0 37 -97z m653 55 c-4 -50 -31 -61
-36 -15 -3 24 -7 27 -43 27 l-39 0 0 -121 c0 -112 1 -121 20 -126 11 -3 20
-12 20 -19 0 -10 -16 -14 -60 -14 -47 0 -60 3 -60 15 0 8 9 15 20 15 19 0 20
7 20 126 l0 125 -37 -3 c-30 -2 -38 -8 -43 -28 -10 -42 -35 -31 -38 18 l-3 42
141 0 141 0 -3 -42z m332 2 c0 -33 -3 -40 -20 -40 -15 0 -20 7 -20 25 0 24 -3
25 -60 25 l-60 0 0 -55 0 -55 55 0 c42 0 55 -3 55 -15 0 -12 -13 -15 -55 -15
l-55 0 0 -55 0 -55 60 0 c57 0 60 1 60 25 0 18 5 25 20 25 17 0 20 -7 20 -40
l0 -40 -120 0 c-96 0 -120 3 -120 14 0 7 9 16 20 19 19 5 20 14 20 122 0 108
-1 117 -20 122 -11 3 -20 12 -20 19 0 11 24 14 120 14 l120 0 0 -40z m623 -82
l77 -122 0 107 c0 100 -1 107 -20 107 -11 0 -20 7 -20 15 0 12 13 15 60 15 47
0 60 -3 60 -15 0 -8 -9 -15 -20 -15 -19 0 -20 -7 -20 -140 0 -140 0 -140 -23
-140 -19 0 -38 22 -97 115 -40 63 -74 115 -76 115 -2 0 -4 -45 -4 -100 0 -93
1 -100 20 -100 11 0 20 -7 20 -15 0 -12 -13 -15 -60 -15 -47 0 -60 3 -60 15 0
8 9 15 20 15 19 0 20 7 20 125 0 118 -1 125 -20 125 -11 0 -20 7 -20 15 0 11
11 15 43 15 l42 0 78 -122z m357 108 c0 -7 -9 -16 -20 -19 -19 -5 -20 -14 -20
-122 0 -108 1 -117 20 -122 11 -3 20 -12 20 -19 0 -10 -16 -14 -60 -14 -47 0
-60 3 -60 15 0 8 9 15 20 15 19 0 20 7 20 125 0 118 -1 125 -20 125 -11 0 -20
7 -20 15 0 12 13 15 60 15 44 0 60 -4 60 -14z m695 -126 c35 -92 57 -136 68
-138 9 -2 17 -10 17 -18 0 -10 -14 -14 -55 -14 -42 0 -55 3 -55 15 0 8 7 15
15 15 18 0 18 7 4 49 -11 30 -13 31 -68 31 -52 0 -59 -2 -69 -25 -16 -35 -15
-55 3 -55 8 0 15 -7 15 -15 0 -12 -13 -15 -55 -15 -41 0 -55 4 -55 14 0 8 7
16 16 18 10 2 30 40 54 103 54 145 54 145 36 145 -9 0 -16 7 -16 16 0 12 10
14 47 12 l46 -3 52 -135z m-6437 -57 c-3 -15 -16 -19 -76 -21 -67 -3 -72 -1
-72 18 0 18 6 20 76 20 66 0 75 -2 72 -17z"/>
<path d="M11983 5989 c-114 -19 -221 -98 -276 -203 l-32 -61 0 -625 0 -625 27
-57 c56 -119 163 -198 299 -219 110 -17 320 -7 388 19 112 43 191 121 231 228
20 55 21 67 18 663 l-3 606 -33 67 c-56 114 -156 187 -284 208 -74 12 -261 11
-335 -1z"/>
<path d="M5663 3365 l-21 -55 44 0 c24 0 44 3 44 6 0 15 -35 104 -41 104 -3 0
-15 -25 -26 -55z"/>
<path d="M8963 3371 l-22 -61 45 0 c51 0 50 -1 15 83 l-16 39 -22 -61z"/>
<path d="M11603 3365 l-21 -55 44 0 c24 0 44 3 44 6 0 15 -35 104 -41 104 -3
0 -15 -25 -26 -55z"/>
</g>
</svg>
