<svg xmlns="http://www.w3.org/2000/svg" xmlns:xlink="http://www.w3.org/1999/xlink" width="50" zoomAndPan="magnify" viewBox="0 0 37.5 37.499999" height="50" preserveAspectRatio="xMidYMid meet" version="1.0"><defs><clipPath id="e59fb1de2d"><path d="M 1 1 L 36 1 L 36 37.007812 L 1 37.007812 Z M 1 1 " clip-rule="nonzero"/></clipPath></defs><path fill="#ffffff" d="M 22.085938 29.261719 C 20.898438 29.261719 19.675781 28.996094 18.457031 28.476562 C 16.34375 27.574219 14.96875 26.21875 14.910156 26.164062 C 14.910156 26.160156 14.90625 26.160156 14.90625 26.15625 C 11.503906 22.65625 9.746094 19.351562 9.675781 16.335938 C 9.617188 13.71875 10.847656 11.875 11.890625 10.789062 C 12.105469 10.570312 12.351562 10.40625 12.636719 10.292969 C 12.917969 10.183594 13.210938 10.136719 13.515625 10.152344 C 13.816406 10.171875 14.105469 10.25 14.375 10.394531 C 14.640625 10.535156 14.871094 10.730469 15.054688 10.972656 L 16.492188 12.835938 C 16.691406 13.097656 16.839844 13.386719 16.929688 13.703125 C 17.019531 14.019531 17.046875 14.34375 17.011719 14.671875 C 16.976562 15 16.882812 15.3125 16.730469 15.601562 C 16.574219 15.894531 16.371094 16.144531 16.121094 16.355469 C 15.746094 16.675781 15.503906 17.074219 15.398438 17.558594 C 15.289062 18.042969 15.339844 18.507812 15.542969 18.957031 C 16.453125 20.945312 18.085938 22.195312 19.292969 22.894531 C 19.640625 23.097656 20.015625 23.175781 20.414062 23.132812 C 20.816406 23.089844 21.164062 22.929688 21.460938 22.660156 L 21.769531 22.378906 C 21.984375 22.183594 22.230469 22.035156 22.5 21.925781 C 22.773438 21.820312 23.054688 21.765625 23.34375 21.761719 C 23.632812 21.757812 23.917969 21.804688 24.191406 21.902344 C 24.464844 22.003906 24.710938 22.148438 24.933594 22.335938 L 26.832031 23.96875 C 26.976562 24.089844 27.105469 24.230469 27.21875 24.386719 C 27.328125 24.539062 27.421875 24.707031 27.496094 24.882812 C 27.570312 25.058594 27.621094 25.242188 27.652344 25.429688 C 27.683594 25.617188 27.691406 25.808594 27.679688 26 C 27.667969 26.191406 27.632812 26.378906 27.574219 26.5625 C 27.519531 26.742188 27.441406 26.917969 27.34375 27.082031 C 27.25 27.246094 27.132812 27.398438 27.003906 27.535156 C 26.871094 27.671875 26.722656 27.792969 26.566406 27.894531 C 25.191406 28.78125 23.714844 29.242188 22.183594 29.257812 C 22.152344 29.261719 22.121094 29.261719 22.085938 29.261719 Z M 15.542969 25.519531 C 15.601562 25.574219 16.902344 26.835938 18.832031 27.652344 C 21.414062 28.742188 23.851562 28.566406 26.082031 27.128906 C 26.285156 27 26.449219 26.828125 26.574219 26.617188 C 26.695312 26.410156 26.765625 26.183594 26.785156 25.9375 C 26.800781 25.695312 26.761719 25.460938 26.667969 25.234375 C 26.574219 25.007812 26.433594 24.816406 26.25 24.660156 L 24.351562 23.027344 C 24.214844 22.910156 24.058594 22.820312 23.886719 22.757812 C 23.714844 22.695312 23.539062 22.664062 23.355469 22.667969 C 23.171875 22.671875 22.996094 22.703125 22.828125 22.773438 C 22.65625 22.839844 22.503906 22.933594 22.371094 23.054688 L 22.0625 23.335938 C 21.847656 23.53125 21.605469 23.6875 21.339844 23.808594 C 21.074219 23.929688 20.800781 24.003906 20.511719 24.035156 C 20.222656 24.066406 19.933594 24.050781 19.652344 23.992188 C 19.367188 23.933594 19.097656 23.828125 18.847656 23.683594 C 17.523438 22.917969 15.738281 21.546875 14.726562 19.339844 C 14.585938 19.027344 14.5 18.703125 14.464844 18.367188 C 14.429688 18.027344 14.445312 17.691406 14.519531 17.359375 C 14.59375 17.027344 14.71875 16.714844 14.894531 16.425781 C 15.070312 16.136719 15.285156 15.878906 15.542969 15.660156 C 15.707031 15.523438 15.835938 15.363281 15.933594 15.175781 C 16.035156 14.988281 16.097656 14.789062 16.117188 14.574219 C 16.140625 14.363281 16.121094 14.15625 16.066406 13.953125 C 16.007812 13.746094 15.914062 13.5625 15.78125 13.394531 L 14.347656 11.527344 C 14.121094 11.234375 13.824219 11.078125 13.460938 11.058594 C 13.097656 11.039062 12.789062 11.160156 12.535156 11.421875 C 10.550781 13.484375 8.304688 18.0625 15.542969 25.519531 Z M 15.542969 25.519531 " fill-opacity="1" fill-rule="nonzero"/><g clip-path="url(#e59fb1de2d)"><path fill="#ffffff" d="M 2.167969 37.6875 C 2.097656 37.6875 2.027344 37.671875 1.964844 37.636719 C 1.898438 37.605469 1.847656 37.558594 1.804688 37.5 C 1.761719 37.441406 1.734375 37.375 1.722656 37.300781 C 1.714844 37.230469 1.71875 37.160156 1.742188 37.089844 L 4.609375 28.425781 C 4.242188 27.875 3.910156 27.304688 3.609375 26.714844 C 3.308594 26.121094 3.042969 25.515625 2.808594 24.894531 C 2.578125 24.269531 2.386719 23.636719 2.226562 22.992188 C 2.070312 22.347656 1.949219 21.695312 1.867188 21.035156 C 1.785156 20.375 1.738281 19.714844 1.734375 19.050781 C 1.726562 18.382812 1.757812 17.722656 1.828125 17.0625 C 1.898438 16.398438 2.007812 15.746094 2.152344 15.097656 C 2.300781 14.449219 2.484375 13.8125 2.703125 13.1875 C 2.921875 12.558594 3.175781 11.949219 3.464844 11.351562 C 3.757812 10.753906 4.078125 10.175781 4.4375 9.617188 C 4.792969 9.058594 5.179688 8.523438 5.597656 8.011719 C 6.019531 7.5 6.464844 7.011719 6.9375 6.550781 C 7.414062 6.09375 7.914062 5.660156 8.4375 5.261719 C 8.960938 4.859375 9.507812 4.488281 10.074219 4.152344 C 10.640625 3.816406 11.226562 3.511719 11.828125 3.246094 C 12.429688 2.976562 13.046875 2.746094 13.675781 2.546875 C 14.304688 2.351562 14.941406 2.195312 15.589844 2.074219 C 16.234375 1.953125 16.886719 1.871094 17.542969 1.828125 C 18.199219 1.785156 18.859375 1.777344 19.515625 1.8125 C 20.171875 1.847656 20.824219 1.917969 21.472656 2.027344 C 22.121094 2.140625 22.761719 2.285156 23.394531 2.472656 C 24.027344 2.660156 24.644531 2.882812 25.25 3.140625 C 25.855469 3.398438 26.445312 3.691406 27.019531 4.019531 C 27.589844 4.347656 28.140625 4.707031 28.671875 5.101562 C 29.203125 5.496094 29.710938 5.917969 30.191406 6.371094 C 30.671875 6.824219 31.125 7.304688 31.554688 7.808594 C 31.980469 8.316406 32.375 8.84375 32.742188 9.398438 C 33.105469 9.949219 33.4375 10.523438 33.738281 11.113281 C 34.035156 11.707031 34.300781 12.3125 34.53125 12.9375 C 34.757812 13.558594 34.949219 14.195312 35.105469 14.839844 C 35.261719 15.484375 35.378906 16.136719 35.460938 16.796875 C 35.542969 17.457031 35.582031 18.121094 35.585938 18.785156 C 35.59375 19.449219 35.558594 20.113281 35.484375 20.773438 C 35.414062 21.433594 35.300781 22.085938 35.15625 22.734375 C 35.007812 23.382812 34.820312 24.019531 34.601562 24.644531 C 34.378906 25.269531 34.121094 25.882812 33.832031 26.476562 C 33.539062 27.074219 33.214844 27.648438 32.855469 28.207031 C 32.496094 28.761719 32.105469 29.296875 31.6875 29.808594 C 31.265625 30.320312 30.816406 30.804688 30.34375 31.265625 C 29.867188 31.722656 29.363281 32.152344 28.839844 32.550781 C 28.3125 32.953125 27.765625 33.320312 27.199219 33.652344 C 26.628906 33.988281 26.042969 34.289062 25.441406 34.554688 C 24.839844 34.824219 24.222656 35.050781 23.59375 35.246094 C 22.964844 35.441406 22.324219 35.597656 21.679688 35.714844 C 21.03125 35.832031 20.378906 35.914062 19.722656 35.953125 C 19.066406 35.996094 18.410156 36 17.75 35.964844 C 17.09375 35.929688 16.441406 35.855469 15.792969 35.742188 C 15.144531 35.628906 14.503906 35.476562 13.875 35.289062 L 8.253906 36.445312 L 2.257812 37.679688 C 2.226562 37.683594 2.199219 37.6875 2.167969 37.6875 Z M 18.679688 2.628906 C 9.824219 2.628906 2.617188 9.910156 2.617188 18.855469 C 2.613281 20.507812 2.855469 22.121094 3.34375 23.699219 C 3.832031 25.273438 4.542969 26.742188 5.476562 28.097656 C 5.5625 28.222656 5.582031 28.355469 5.535156 28.5 L 2.839844 36.632812 L 8.074219 35.554688 L 13.804688 34.378906 C 13.878906 34.363281 13.953125 34.367188 14.023438 34.390625 C 15.542969 34.851562 17.09375 35.082031 18.679688 35.082031 C 27.535156 35.082031 34.742188 27.800781 34.742188 18.855469 C 34.742188 9.910156 27.535156 2.628906 18.679688 2.628906 Z M 18.679688 2.628906 " fill-opacity="1" fill-rule="nonzero"/></g></svg>